<?xml version="1.0" encoding="utf-8"?>
<!-- Generator: Adobe Illustrator 16.0.0, SVG Export Plug-In . SVG Version: 6.00 Build 0)  -->
<!DOCTYPE svg PUBLIC "-//W3C//DTD SVG 1.1//EN" "http://www.w3.org/Graphics/SVG/1.1/DTD/svg11.dtd">
<svg version="1.1" id="Layer_1" xmlns="http://www.w3.org/2000/svg" xmlns:xlink="http://www.w3.org/1999/xlink" x="0px" y="0px"
	 width="103px" height="190.622px" viewBox="0 0 103 190.622" enable-background="new 0 0 103 190.622" xml:space="preserve">
<polygon fill="#3B599A" points="26.004,189.622 0.349,145.185 26.004,100.747 77.316,100.747 102.973,145.185 77.316,189.622 "/>
<path id="White_2_" fill="#FFFFFF" d="M74.505,119.507H28.818c-1.565,0-2.835,1.269-2.835,2.834v45.686
	c0,1.566,1.27,2.835,2.835,2.835h24.595v-19.887h-6.691v-7.751h6.691v-5.716c0-6.634,4.053-10.244,9.97-10.244
	c2.833,0,5.271,0.211,5.979,0.305v6.933l-4.103,0.002c-3.22,0-3.843,1.528-3.843,3.772v4.948h7.675l-1,7.751h-6.675v19.887h13.088
	c1.564,0,2.833-1.269,2.833-2.835v-45.686C77.338,120.775,76.069,119.507,74.505,119.507z"/>
<polygon fill="none" stroke="#FFFFFF" stroke-miterlimit="10" points="26.004,89.875 0.349,45.438 26.004,1 77.316,1 
	102.973,45.438 77.316,89.875 "/>
<path id="White_1_" fill="#FFFFFF" d="M74.505,19.76H28.818c-1.565,0-2.835,1.269-2.835,2.834v45.686
	c0,1.566,1.27,2.835,2.835,2.835h24.595V51.228h-6.691v-7.751h6.691v-5.716c0-6.634,4.053-10.244,9.97-10.244
	c2.833,0,5.271,0.211,5.979,0.305v6.933l-4.103,0.002c-3.22,0-3.843,1.528-3.843,3.772v4.948h7.675l-1,7.751h-6.675v19.887h13.088
	c1.564,0,2.833-1.269,2.833-2.835V22.594C77.338,21.028,76.069,19.76,74.505,19.76z"/>
</svg>
