<?xml version="1.0" encoding="utf-8"?>
<!-- Generator: Adobe Illustrator 16.0.0, SVG Export Plug-In . SVG Version: 6.00 Build 0)  -->
<!DOCTYPE svg PUBLIC "-//W3C//DTD SVG 1.1//EN" "http://www.w3.org/Graphics/SVG/1.1/DTD/svg11.dtd">
<svg version="1.1" id="Layer_1" xmlns="http://www.w3.org/2000/svg" xmlns:xlink="http://www.w3.org/1999/xlink" x="0px" y="0px"
	 width="103px" height="190.622px" viewBox="0 0 103 190.622" enable-background="new 0 0 103 190.622" xml:space="preserve">
<polygon fill="#181617" points="26.004,189.622 0.349,145.185 26.004,100.747 77.316,100.747 102.973,145.185 77.316,189.622 "/>
<g>
	<path fill-rule="evenodd" clip-rule="evenodd" fill="#FFFFFF" d="M51.318,119.432c-14.412,0-26.097,11.684-26.097,26.097
		c0,11.53,7.478,21.312,17.847,24.764c1.304,0.241,1.783-0.566,1.783-1.256c0-0.622-0.024-2.678-0.035-4.858
		c-7.261,1.579-8.792-3.079-8.792-3.079c-1.187-3.017-2.898-3.818-2.898-3.818c-2.368-1.62,0.179-1.587,0.179-1.587
		c2.62,0.185,4,2.689,4,2.689c2.328,3.99,6.105,2.837,7.595,2.17c0.234-1.687,0.91-2.838,1.657-3.49
		c-5.797-0.659-11.89-2.897-11.89-12.896c0-2.85,1.02-5.178,2.689-7.005c-0.271-0.658-1.165-3.312,0.252-6.907
		c0,0,2.192-0.701,7.179,2.676c2.082-0.578,4.314-0.868,6.532-0.879c2.218,0.011,4.451,0.301,6.537,0.879
		c4.981-3.377,7.17-2.676,7.17-2.676c1.42,3.595,0.527,6.249,0.256,6.907c1.674,1.827,2.687,4.155,2.687,7.005
		c0,10.023-6.105,12.229-11.917,12.876c0.937,0.81,1.771,2.398,1.771,4.833c0,3.491-0.03,6.302-0.03,7.161
		c0,0.695,0.47,1.509,1.792,1.253c10.364-3.455,17.832-13.234,17.832-24.761C77.415,131.115,65.73,119.432,51.318,119.432z"/>
	<path fill="#FFFFFF" d="M35.106,156.901c-0.058,0.13-0.262,0.169-0.448,0.079c-0.19-0.085-0.295-0.262-0.234-0.392
		c0.057-0.134,0.261-0.171,0.45-0.081C35.062,156.593,35.171,156.771,35.106,156.901L35.106,156.901z M34.784,156.663"/>
	<path fill="#FFFFFF" d="M36.163,158.08c-0.124,0.115-0.368,0.062-0.533-0.12c-0.171-0.183-0.203-0.426-0.077-0.543
		c0.128-0.115,0.365-0.061,0.535,0.121C36.26,157.722,36.292,157.963,36.163,158.08L36.163,158.08z M35.914,157.813"/>
	<path fill="#FFFFFF" d="M37.191,159.583c-0.16,0.111-0.421,0.007-0.583-0.225c-0.16-0.232-0.16-0.511,0.004-0.622
		c0.161-0.111,0.419-0.012,0.583,0.219C37.355,159.191,37.355,159.47,37.191,159.583L37.191,159.583z M37.191,159.583"/>
	<path fill="#FFFFFF" d="M38.601,161.035c-0.143,0.158-0.447,0.115-0.67-0.1c-0.229-0.211-0.292-0.509-0.148-0.667
		c0.145-0.158,0.452-0.113,0.676,0.1C38.685,160.579,38.754,160.879,38.601,161.035L38.601,161.035z M38.601,161.035"/>
	<path fill="#FFFFFF" d="M40.546,161.879c-0.063,0.204-0.356,0.297-0.652,0.21c-0.295-0.09-0.489-0.329-0.429-0.535
		c0.061-0.206,0.356-0.303,0.653-0.21C40.414,161.433,40.607,161.671,40.546,161.879L40.546,161.879z M40.546,161.879"/>
	<path fill="#FFFFFF" d="M42.682,162.035c0.007,0.215-0.244,0.394-0.554,0.397c-0.312,0.007-0.565-0.168-0.568-0.38
		c0-0.217,0.245-0.394,0.557-0.398C42.427,161.648,42.682,161.821,42.682,162.035L42.682,162.035z M42.682,162.035"/>
	<path fill="#FFFFFF" d="M44.669,161.696c0.037,0.21-0.178,0.426-0.486,0.483c-0.303,0.056-0.583-0.074-0.622-0.282
		c-0.038-0.216,0.182-0.432,0.485-0.487C44.353,161.356,44.63,161.483,44.669,161.696L44.669,161.696z M44.669,161.696"/>
</g>
<polygon fill="none" stroke="#FFFFFF" stroke-miterlimit="10" points="26.004,89.622 0.349,45.185 26.004,0.747 77.316,0.747 
	102.973,45.185 77.316,89.622 "/>
<g>
	<path fill-rule="evenodd" clip-rule="evenodd" fill="#FFFFFF" d="M51.318,19.432c-14.412,0-26.097,11.684-26.097,26.097
		c0,11.53,7.478,21.312,17.847,24.764c1.304,0.241,1.783-0.566,1.783-1.256c0-0.622-0.024-2.678-0.035-4.858
		c-7.261,1.579-8.792-3.079-8.792-3.079c-1.187-3.017-2.898-3.818-2.898-3.818c-2.368-1.62,0.179-1.587,0.179-1.587
		c2.62,0.185,4,2.689,4,2.689c2.328,3.99,6.105,2.837,7.595,2.17c0.234-1.687,0.91-2.838,1.657-3.49
		c-5.797-0.659-11.89-2.897-11.89-12.896c0-2.85,1.02-5.178,2.689-7.005c-0.271-0.658-1.165-3.312,0.252-6.907
		c0,0,2.192-0.701,7.179,2.676c2.082-0.578,4.314-0.868,6.532-0.879c2.218,0.011,4.451,0.301,6.537,0.879
		c4.981-3.377,7.17-2.676,7.17-2.676c1.42,3.595,0.527,6.249,0.256,6.907c1.674,1.827,2.687,4.155,2.687,7.005
		c0,10.023-6.105,12.229-11.917,12.876c0.937,0.81,1.771,2.398,1.771,4.833c0,3.491-0.03,6.302-0.03,7.161
		c0,0.695,0.47,1.509,1.792,1.253c10.364-3.455,17.832-13.234,17.832-24.761C77.415,31.115,65.73,19.432,51.318,19.432z"/>
	<path fill="#FFFFFF" d="M35.106,56.901c-0.058,0.13-0.262,0.169-0.448,0.079c-0.19-0.085-0.295-0.262-0.234-0.392
		c0.057-0.134,0.261-0.171,0.45-0.081C35.062,56.593,35.171,56.771,35.106,56.901L35.106,56.901z M34.784,56.663"/>
	<path fill="#FFFFFF" d="M36.163,58.08c-0.124,0.115-0.368,0.062-0.533-0.12c-0.171-0.183-0.203-0.426-0.077-0.543
		c0.128-0.115,0.365-0.061,0.535,0.121C36.26,57.722,36.292,57.963,36.163,58.08L36.163,58.08z M35.914,57.813"/>
	<path fill="#FFFFFF" d="M37.191,59.583c-0.16,0.111-0.421,0.007-0.583-0.225c-0.16-0.232-0.16-0.511,0.004-0.622
		c0.161-0.111,0.419-0.012,0.583,0.219C37.355,59.191,37.355,59.47,37.191,59.583L37.191,59.583z M37.191,59.583"/>
	<path fill="#FFFFFF" d="M38.601,61.035c-0.143,0.158-0.447,0.115-0.67-0.1c-0.229-0.211-0.292-0.509-0.148-0.667
		c0.145-0.158,0.452-0.113,0.676,0.1C38.685,60.579,38.754,60.879,38.601,61.035L38.601,61.035z M38.601,61.035"/>
	<path fill="#FFFFFF" d="M40.546,61.879c-0.063,0.204-0.356,0.297-0.652,0.21c-0.295-0.09-0.489-0.329-0.429-0.535
		c0.061-0.206,0.356-0.303,0.653-0.21C40.414,61.433,40.607,61.671,40.546,61.879L40.546,61.879z M40.546,61.879"/>
	<path fill="#FFFFFF" d="M42.682,62.035c0.007,0.215-0.244,0.394-0.554,0.397c-0.312,0.007-0.565-0.168-0.568-0.38
		c0-0.217,0.245-0.394,0.557-0.398C42.427,61.648,42.682,61.821,42.682,62.035L42.682,62.035z M42.682,62.035"/>
	<path fill="#FFFFFF" d="M44.669,61.696c0.037,0.21-0.178,0.426-0.486,0.483c-0.303,0.056-0.583-0.074-0.622-0.282
		c-0.038-0.216,0.182-0.432,0.485-0.487C44.353,61.356,44.63,61.483,44.669,61.696L44.669,61.696z M44.669,61.696"/>
</g>
</svg>
