<?xml version="1.0" encoding="utf-8"?>
<!-- Generator: Adobe Illustrator 16.0.0, SVG Export Plug-In . SVG Version: 6.00 Build 0)  -->
<!DOCTYPE svg PUBLIC "-//W3C//DTD SVG 1.1//EN" "http://www.w3.org/Graphics/SVG/1.1/DTD/svg11.dtd">
<svg version="1.1" id="Layer_1" xmlns="http://www.w3.org/2000/svg" xmlns:xlink="http://www.w3.org/1999/xlink" x="0px" y="0px"
	 width="103px" height="190.622px" viewBox="0 0 103 190.622" enable-background="new 0 0 103 190.622" xml:space="preserve">
<polygon fill="#188EBD" points="26.004,189.424 0.349,144.986 26.004,100.549 77.316,100.549 102.973,144.986 77.316,189.424 "/>
<g>
	<g enable-background="new    ">
		<path fill="#FFFFFF" d="M33.667,149.117c0-1.549-0.715-3.059-3.416-3.098v-2.066c2.701-0.039,3.416-1.549,3.416-3.057
			c0-2.502-0.357-4.965-0.357-7.705c0-4.051,1.509-5.281,4.607-5.281h1.827v1.906h-1.112c-2.105,0-2.661,0.992-2.661,3.574
			c0,2.303,0.239,4.766,0.239,7.188c0,2.582-0.675,3.852-2.383,4.328v0.16c1.708,0.477,2.383,1.787,2.383,4.328
			c0,2.701-0.239,4.766-0.239,7.188c0,2.582,0.556,3.615,2.661,3.615h1.112v1.865h-1.827c-3.098,0-4.607-1.191-4.607-5.281
			C33.309,153.883,33.667,151.777,33.667,149.117z"/>
	</g>
	<g enable-background="new    ">
		<path fill="#FFFFFF" d="M63.843,160.197c2.145,0,2.7-1.033,2.7-3.615c0-2.422-0.198-4.486-0.198-7.188
			c0-2.541,0.636-3.852,2.343-4.328v-0.158c-1.707-0.477-2.343-1.748-2.343-4.33c0-2.422,0.198-4.885,0.198-7.188
			c0-2.582-0.556-3.574-2.7-3.574h-1.032v-1.906h1.747c3.177,0,4.646,1.23,4.646,5.281c0,2.74-0.357,5.203-0.357,7.705
			c0,1.508,0.754,3.018,3.415,3.057v2.066c-2.66,0.039-3.415,1.549-3.415,3.098c0,2.66,0.357,4.766,0.357,7.664
			c0,4.09-1.47,5.281-4.646,5.281h-1.747v-1.865H63.843L63.843,160.197z"/>
	</g>
	<g id="lab_1_">
		<path fill="#FFFFFF" d="M47.057,138.436c-0.505,0-0.979,0.197-1.336,0.553c-0.356,0.357-0.553,0.832-0.554,1.338l0,1.508
			c0,0.506,0.196,0.98,0.553,1.338c0.251,0.252,0.562,0.424,0.9,0.504l-4.349,10.16c-0.272,0.699-0.182,1.484,0.239,2.102
			c0.424,0.621,1.124,0.99,1.882,0.99l13.52-0.076c0.586,0.002,1.141-0.221,1.561-0.623c0.011-0.008,0.033-0.031,0.043-0.041
			c0.107-0.107,0.205-0.229,0.292-0.359c0.422-0.641,0.489-1.443,0.187-2.141l-4.293-10c0.356-0.074,0.686-0.25,0.948-0.514
			c0.357-0.357,0.553-0.832,0.553-1.336v-1.506c0.002-0.508-0.194-0.984-0.553-1.342s-0.835-0.555-1.337-0.553L47.057,138.436z
			 M58.604,154.283c0.102,0.234,0.079,0.502-0.061,0.715c-0.033,0.051-0.07,0.094-0.111,0.135c-0.139,0.133-0.324,0.209-0.521,0.209
			l-13.528,0.074c-0.25,0-0.483-0.123-0.624-0.33c-0.141-0.205-0.171-0.469-0.079-0.701l1.991-4.652
			c2.982-1.494,4.504-4.449,9.133-4.301L58.604,154.283z M55.691,140.326l-0.001,1.51c0,0.209-0.169,0.379-0.378,0.379h-1.889
			l1.151,2.682l-0.098-0.225c-3.215,0.004-5.051,1.436-6.708,2.729c-0.532,0.416-1.053,0.814-1.601,1.17l2.719-6.355h-1.833
			c-0.208,0-0.377-0.17-0.377-0.377l0-1.512c0-0.209,0.169-0.379,0.377-0.379l8.258,0.002
			C55.522,139.947,55.691,140.115,55.691,140.326z"/>
		<path fill="#FFFFFF" d="M54.049,149.896c0.737-0.736,0.737-1.936,0-2.672c-0.736-0.736-1.935-0.736-2.671,0
			c-0.737,0.738-0.738,1.936,0,2.674C52.114,150.635,53.312,150.633,54.049,149.896z M51.912,147.76
			c0.443-0.443,1.161-0.443,1.603,0s0.442,1.16,0,1.604s-1.16,0.441-1.603,0C51.469,148.92,51.469,148.203,51.912,147.76z"/>
		<path fill="#FFFFFF" d="M49.774,131.729c-0.736,0.738-0.736,1.936,0,2.672c0.737,0.736,1.935,0.738,2.672,0
			c0.737-0.736,0.736-1.934,0-2.672C51.709,130.992,50.511,130.992,49.774,131.729z M51.911,133.867
			c-0.442,0.441-1.16,0.441-1.603,0c-0.442-0.443-0.443-1.162,0-1.604c0.443-0.443,1.161-0.443,1.603,0
			C52.354,132.705,52.354,133.424,51.911,133.867z"/>
		<path fill="#FFFFFF" d="M47.37,152.303c0.589,0.59,1.548,0.588,2.138,0c0.589-0.59,0.59-1.549,0-2.139
			c-0.589-0.588-1.548-0.588-2.138,0C46.78,150.754,46.78,151.713,47.37,152.303z M47.904,150.699c0.295-0.295,0.773-0.297,1.069,0
			c0.295,0.295,0.295,0.773,0,1.068s-0.773,0.295-1.069,0S47.609,150.994,47.904,150.699z"/>
		<circle fill="#FFFFFF" cx="53.248" cy="152.836" r="0.756"/>
		<circle fill="#FFFFFF" cx="53.782" cy="136.271" r="0.756"/>
	</g>
</g>
<polygon fill="none" stroke="#FFFFFF" stroke-miterlimit="10" points="26.004,89.875 0.349,45.437 26.004,1 77.316,1 
	102.973,45.437 77.316,89.875 "/>
<g>
	<g enable-background="new    ">
		<path fill="#FFFFFF" d="M33.667,49.568c0-1.549-0.715-3.059-3.416-3.098v-2.066c2.701-0.039,3.416-1.549,3.416-3.057
			c0-2.502-0.357-4.965-0.357-7.705c0-4.051,1.509-5.281,4.607-5.281h1.827v1.906h-1.112c-2.105,0-2.661,0.992-2.661,3.574
			c0,2.303,0.239,4.766,0.239,7.188c0,2.582-0.675,3.852-2.383,4.328v0.16c1.708,0.477,2.383,1.787,2.383,4.328
			c0,2.701-0.239,4.766-0.239,7.188c0,2.582,0.556,3.615,2.661,3.615h1.112v1.865h-1.827c-3.098,0-4.607-1.191-4.607-5.281
			C33.309,54.333,33.667,52.228,33.667,49.568z"/>
	</g>
	<g enable-background="new    ">
		<path fill="#FFFFFF" d="M63.843,60.648c2.145,0,2.7-1.033,2.7-3.615c0-2.422-0.198-4.486-0.198-7.188
			c0-2.541,0.636-3.852,2.343-4.328v-0.158c-1.707-0.477-2.343-1.748-2.343-4.33c0-2.422,0.198-4.885,0.198-7.188
			c0-2.582-0.556-3.574-2.7-3.574h-1.032v-1.906h1.747c3.177,0,4.646,1.23,4.646,5.281c0,2.74-0.357,5.203-0.357,7.705
			c0,1.508,0.754,3.018,3.415,3.057v2.066c-2.66,0.039-3.415,1.549-3.415,3.098c0,2.66,0.357,4.766,0.357,7.664
			c0,4.09-1.47,5.281-4.646,5.281h-1.747v-1.865H63.843L63.843,60.648z"/>
	</g>
	<g id="lab_2_">
		<path fill="#FFFFFF" d="M47.057,38.886c-0.505,0-0.979,0.197-1.336,0.553c-0.356,0.357-0.553,0.832-0.554,1.338l0,1.508
			c0,0.506,0.196,0.98,0.553,1.338c0.251,0.252,0.562,0.424,0.9,0.504l-4.349,10.16c-0.272,0.699-0.182,1.484,0.239,2.102
			c0.424,0.621,1.124,0.99,1.882,0.99l13.52-0.076c0.586,0.002,1.141-0.221,1.561-0.623c0.011-0.008,0.033-0.031,0.043-0.041
			c0.107-0.107,0.205-0.229,0.292-0.359c0.422-0.641,0.489-1.443,0.187-2.141l-4.293-10c0.356-0.074,0.686-0.25,0.948-0.514
			c0.357-0.357,0.553-0.832,0.553-1.336v-1.506c0.002-0.508-0.194-0.984-0.553-1.342s-0.835-0.555-1.337-0.553L47.057,38.886z
			 M58.604,54.734c0.102,0.234,0.079,0.502-0.061,0.715c-0.033,0.051-0.07,0.094-0.111,0.135c-0.139,0.133-0.324,0.209-0.521,0.209
			l-13.528,0.074c-0.25,0-0.483-0.123-0.624-0.33c-0.141-0.205-0.171-0.469-0.079-0.701l1.991-4.652
			c2.982-1.494,4.504-4.449,9.133-4.301L58.604,54.734z M55.691,40.777l-0.001,1.51c0,0.209-0.169,0.379-0.378,0.379h-1.889
			l1.151,2.682l-0.098-0.225c-3.215,0.004-5.051,1.436-6.708,2.729c-0.532,0.416-1.053,0.814-1.601,1.17l2.719-6.355h-1.833
			c-0.208,0-0.377-0.17-0.377-0.377l0-1.512c0-0.209,0.169-0.379,0.377-0.379l8.258,0.002
			C55.522,40.398,55.691,40.566,55.691,40.777z"/>
		<path fill="#FFFFFF" d="M54.049,50.347c0.737-0.736,0.737-1.936,0-2.672c-0.736-0.736-1.935-0.736-2.671,0
			c-0.737,0.738-0.738,1.936,0,2.674C52.114,51.085,53.312,51.083,54.049,50.347z M51.912,48.21c0.443-0.443,1.161-0.443,1.603,0
			s0.442,1.16,0,1.604s-1.16,0.441-1.603,0C51.469,49.371,51.469,48.654,51.912,48.21z"/>
		<path fill="#FFFFFF" d="M49.774,32.179c-0.736,0.738-0.736,1.936,0,2.672c0.737,0.736,1.935,0.738,2.672,0
			c0.737-0.736,0.736-1.934,0-2.672C51.709,31.443,50.511,31.443,49.774,32.179z M51.911,34.318c-0.442,0.441-1.16,0.441-1.603,0
			c-0.442-0.443-0.443-1.162,0-1.604c0.443-0.443,1.161-0.443,1.603,0C52.354,33.156,52.354,33.875,51.911,34.318z"/>
		<path fill="#FFFFFF" d="M47.37,52.753c0.589,0.59,1.548,0.588,2.138,0c0.589-0.59,0.59-1.549,0-2.139
			c-0.589-0.588-1.548-0.588-2.138,0C46.78,51.205,46.78,52.164,47.37,52.753z M47.904,51.15c0.295-0.295,0.773-0.297,1.069,0
			c0.295,0.295,0.295,0.773,0,1.068s-0.773,0.295-1.069,0S47.609,51.445,47.904,51.15z"/>
		<circle fill="#FFFFFF" cx="53.248" cy="53.287" r="0.756"/>
		<circle fill="#FFFFFF" cx="53.782" cy="36.722" r="0.756"/>
	</g>
</g>
</svg>
