<?xml version="1.0" encoding="utf-8"?>
<!-- Generator: Adobe Illustrator 16.0.0, SVG Export Plug-In . SVG Version: 6.00 Build 0)  -->
<!DOCTYPE svg PUBLIC "-//W3C//DTD SVG 1.1//EN" "http://www.w3.org/Graphics/SVG/1.1/DTD/svg11.dtd">
<svg version="1.1" id="Layer_1" xmlns="http://www.w3.org/2000/svg" xmlns:xlink="http://www.w3.org/1999/xlink" x="0px" y="0px"
	 width="841.89px" height="344px" viewBox="0 0 841.89 344" enable-background="new 0 0 841.89 344" xml:space="preserve">
<g>
	<path fill="#3F9FC9" d="M9.485,73.167h179c4.418,0,8,3.582,8,8v243.501c0,4.418-3.582,8-8,8h-179"/>
	<rect x="8.986" y="72.501" fill="#398FB5" width="23.333" height="260"/>
	<rect x="65.653" y="131.168" fill="#F4F4F4" width="90" height="52.667"/>
	<rect x="71.653" y="143.835" fill="#DBDBDB" width="76" height="9.333"/>
	<rect x="71.653" y="161.501" fill="#DBDBDB" width="52" height="9.333"/>
	<path fill="#FFFFFF" d="M196.319,297.502v21.166c0,0,0.667,5.5-7.833,5.5s-172,0-172,0v-21.5h171.333
		C187.819,302.668,196.319,303.336,196.319,297.502z"/>
	<path fill="#E8ECED" d="M196.319,297.502v6.166c0,0,0.667,5.5-7.833,5.5s-172,0-172,0v-6.5h171.333
		C187.819,302.668,196.319,303.336,196.319,297.502z"/>
	<polygon fill="#E15349" points="64.652,339.168 46.985,328.168 28.985,339.168 28.985,309.168 64.652,309.168 	"/>
</g>
<g>
	<g>
		<path fill="#F29F86" d="M595.47,14.106c0,2.209-1.67,4-3.73,4H584.2c-2.061,0-3.73-1.791-3.73-4V7.189c0-2.209,1.67-4,3.73-4
			h7.539c2.061,0,3.73,1.791,3.73,4V14.106z"/>
		<g>
			<path fill="#E28E7D" d="M587.471,3.189H584.2c-2.061,0-3.73,1.791-3.73,4v6.917c0,2.209,1.67,4,3.73,4h3.271V3.189z"/>
			<path fill="#E28E7D" d="M595.387,6.358v8.578c0.053-0.268,0.083-0.545,0.083-0.83V7.189
				C595.47,6.904,595.439,6.627,595.387,6.358z"/>
		</g>
	</g>
	<g>
		<rect x="580.47" y="13.522" fill="#E29C00" width="15" height="237.5"/>
		<rect x="580.47" y="13.522" fill="#B57400" width="7" height="237.5"/>
	</g>
	<g>
		<rect x="580.47" y="13.522" fill="#DEE2E6" width="15" height="26.844"/>
		<rect x="580.47" y="13.522" fill="#CBD0D5" width="7" height="26.833"/>
	</g>
	<path fill="#EDD9C5" d="M580.471,251.022l5.903,24.275l4.227-2.083l4.865-22.25c0,0-3.351-8.166-7.817-0.833
		C587.648,250.132,583.82,242.522,580.471,251.022z"/>
	<polygon fill="#2D2D2D" points="586.374,275.298 590.601,273.215 588.387,281.356 	"/>
</g>
<g>
	<rect x="522.125" y="208" fill="#26AE90" width="24.75" height="69.375"/>
	<rect x="522.125" y="267.125" fill="#228C70" width="24.75" height="10.25"/>
	<rect x="522.125" y="270.875" fill="#FFFFFF" width="24.75" height="2.75"/>
</g>
<g>
	<path fill="#FCBC5E" d="M588,290.666v6.584h-1.666v-6.584h-3.854v6.584h-1.666v-6.584h-3.854v13.959h-1.666v-13.959h-3.854v6.584
		h-1.666v-6.584h-3.854v6.584h-1.666v-6.584h-3.854v6.584h-1.667v-6.584h-3.854v13.959h-1.666v-13.959h-3.854v6.584h-1.666v-6.584
		h-3.854v6.584h-1.666v-6.584h-3.854v6.584h-1.666v-6.584h-3.854v13.959h-1.666v-13.959h-3.854v6.584h-1.666v-6.584h-3.854v6.584
		h-1.666v-6.584h-3.854v6.584h-1.667v-6.584h-3.854v13.959h-1.666v-13.959h-3.854v6.584h-1.666v-6.584h-3.854v6.584h-1.666v-6.584
		h-3.854v6.584h-1.666v-6.584h-3.854v13.959h-1.667v-13.959h-3.854v6.584h-1.667v-6.584h-3.854v6.584h-1.667v-6.584h-3.854v6.584
		h-1.667v-6.584h-3.853v13.959h-1.667v-13.959h-3.854v6.584h-1.667v-6.584h-3.854v6.584h-1.667v-6.584h-3.854v6.584h-1.666v-6.584
		h-3.854v13.959h-1.666v-13.959h-3.854v6.584h-1.666v-6.584h-3.854v6.584h-1.666v-6.584h-3.854v6.584h-1.667v-6.584h-3.854v13.959
		h-1.666v-13.959h-3.854v6.584h-1.666v-6.584h-3.854v6.584h-1.667v-6.584h-3.854v6.584h-1.667v-6.584h-3.854v13.959h-1.667v-13.959
		h-3.854v6.584h-1.667v-6.584h-3.854v6.584h-1.667v-6.584h-3.854v6.584h-1.667v-6.584h-3.854v13.959h-1.667v-13.959h-3.854v6.584
		h-1.667v-6.584h-3.854v6.584h-1.667v-6.584h-3.854v6.584H360v-6.584h-6.333V329h241.667v-38.334H588z M585.334,315.5
		c-2.301,0-4.167-1.866-4.167-4.167s1.866-4.167,4.167-4.167s4.167,1.866,4.167,4.167S587.635,315.5,585.334,315.5z"/>
	<rect x="353.667" y="322.749" fill="#DD9C3E" width="241.667" height="6.251"/>
</g>
<g>
	<g>
		<g>
			<path fill="#9B3D1C" d="M331.436,276.998c0,7.732-6.268,14-14,14h-81.5c-7.732,0-14-6.268-14-14v-191.5c0-7.731,6.268-14,14-14
				h81.5c7.732,0,14,6.269,14,14V276.998z"/>
			<path fill="#C65122" d="M331.436,270.998c0,7.732-6.268,14-14,14h-81.5c-7.732,0-14-6.268-14-14v-185.5c0-7.731,6.268-14,14-14
				h81.5c7.732,0,14,6.269,14,14V270.998z"/>
			<rect x="231.186" y="105.999" fill="#FFFFFF" width="91" height="140.5"/>
			<path fill="#FFFFFF" d="M289.936,270.498c0,2.209-1.791,4-4,4h-18.5c-2.209,0-4-1.791-4-4v-7.5c0-2.209,1.791-4,4-4h18.5
				c2.209,0,4,1.791,4,4V270.498z"/>
			<circle fill="#FFFFFF" cx="289.998" cy="91.249" r="3"/>
			<rect x="259.998" y="89.749" fill="#FFFFFF" width="22" height="3"/>
		</g>
		<rect x="302.498" y="53.749" fill="#FFFFFF" width="9" height="17.75"/>
		<g>
			<path fill="#FFFFFF" d="M358.279,94.811c0,2.209-1.791,4-4,4h-2c-2.209,0-4-1.791-4-4v-26.25c0-2.209,1.791-4,4-4h2
				c2.209,0,4,1.791,4,4V94.811z"/>
			<rect x="351.279" y="38.394" fill="#FFFFFF" width="3.75" height="204.417"/>
		</g>
		<rect x="417.54" y="109.478" fill="#FFFFFF" width="3.75" height="114"/>
		<rect x="304.998" y="38.499" fill="#FFFFFF" width="3.75" height="16.625"/>
		<rect x="313.159" y="30.244" fill="#FFFFFF" width="33.688" height="3.52"/>
		<g>
			<path fill="#FFFFFF" d="M497.561,118.342c-4.634,0-8.613,2.774-10.386,6.75h-12.177v9.25h12.177
				c1.772,3.976,5.752,6.75,10.386,6.75c6.282,0,11.375-5.093,11.375-11.375S503.843,118.342,497.561,118.342z M497.561,133.967
				c-2.348,0-4.25-1.903-4.25-4.25s1.902-4.25,4.25-4.25s4.25,1.903,4.25,4.25S499.908,133.967,497.561,133.967z"/>
			<rect x="425.562" y="127.769" fill="#FFFFFF" width="50.374" height="3.562"/>
		</g>
		<g>
			<path fill="#FFFFFF" d="M456.061,91.592c-4.634,0-8.613,2.774-10.386,6.75h-12.177v9.25h12.177
				c1.772,3.976,5.752,6.75,10.386,6.75c6.282,0,11.375-5.093,11.375-11.375S462.343,91.592,456.061,91.592z M456.061,107.217
				c-2.348,0-4.25-1.903-4.25-4.25s1.902-4.25,4.25-4.25s4.25,1.903,4.25,4.25S458.408,107.217,456.061,107.217z"/>
			<rect x="425.561" y="101.53" fill="#FFFFFF" width="9.125" height="3.562"/>
		</g>
		<rect x="364.529" y="55.311" fill="#FFFFFF" width="3.75" height="187.5"/>
		<rect x="377.779" y="55.311" fill="#FFFFFF" width="3.75" height="206.5"/>
		<rect x="391.051" y="71.749" fill="#FFFFFF" width="3.75" height="190.062"/>
		<rect x="404.316" y="71.749" fill="#FFFFFF" width="3.75" height="152"/>
		<path fill="#FFFFFF" d="M368.265,55.342c0-0.005-0.001-0.011-0.001-0.016c0-2.624,2.189-4.766,4.802-4.766s4.729,2.126,4.729,4.75
			c0,0.011-0.002,0.021-0.002,0.031h3.723c-0.138-4.596-3.882-8.281-8.491-8.281c-4.61,0-8.354,3.686-8.492,8.281H368.265z"/>
		<path fill="#FFFFFF" d="M394.797,71.78c0-0.005-0.002-0.011-0.002-0.016c0-2.624,2.189-4.766,4.802-4.766s4.729,2.126,4.729,4.75
			c0,0.011-0.002,0.021-0.002,0.031h3.723c-0.138-4.596-3.882-8.281-8.491-8.281c-4.61,0-8.354,3.686-8.492,8.281H394.797z"/>
		<g>
			<polygon fill="#FFFFFF" points="313.524,30.228 313.514,30.228 313.504,30.228 			"/>
			<path fill="#FFFFFF" d="M313.186,33.765v-3.521c-4.457,0.172-8.029,3.78-8.164,8.266h3.733c0-0.006-0.001-0.011-0.001-0.016
				C308.753,35.997,310.742,33.958,313.186,33.765z"/>
		</g>
		<g>
			<polygon fill="#FFFFFF" points="355.038,38.744 355.039,38.734 355.038,38.724 			"/>
			<path fill="#FFFFFF" d="M351.279,38.406h3.743c-0.172-4.457-3.78-8.029-8.265-8.164v3.733c0.005,0,0.01-0.195,0.016-0.195
				C349.27,33.78,351.086,35.962,351.279,38.406z"/>
		</g>
		<path fill="#FFFFFF" d="M364.533,242.77c0,0.004,0.001,0.01,0.001,0.016c0,2.623-2.189,4.766-4.802,4.766s-4.73-2.127-4.73-4.75
			c0-0.012,0.003-0.021,0.003-0.031h-3.724c0.138,4.596,3.882,8.281,8.492,8.281c4.61,0,8.354-3.686,8.492-8.281H364.533z"/>
		<path fill="#FFFFFF" d="M391.074,261.727c0,0.006,0.002,0.012,0.002,0.016c0,2.625-2.189,4.766-4.803,4.766
			c-2.611,0-4.729-2.125-4.729-4.75c0-0.01,0.003-0.02,0.003-0.031h-3.724c0.138,4.596,3.882,8.281,8.491,8.281
			c4.61,0,8.354-3.686,8.492-8.281H391.074z"/>
		<path fill="#FFFFFF" d="M417.563,223.393c0,0.006,0.002,0.012,0.002,0.016c0,2.625-2.189,4.766-4.803,4.766
			c-2.611,0-4.729-2.125-4.729-4.75c0-0.01,0.003-0.02,0.003-0.031h-3.724c0.139,4.596,3.883,8.281,8.491,8.281
			c4.61,0,8.354-3.686,8.492-8.281H417.563z"/>
		<g>
			<polygon fill="#FFFFFF" points="426.065,101.519 426.056,101.519 426.046,101.519 			"/>
			<path fill="#FFFFFF" d="M425.728,105.056v-3.521c-4.457,0.172-8.029,3.781-8.164,8.266h3.733c0-0.006-0.001-0.01-0.001-0.016
				C421.296,107.289,423.284,105.25,425.728,105.056z"/>
		</g>
		<g>
			<polygon fill="#FFFFFF" points="426.003,127.769 425.993,127.769 425.983,127.769 			"/>
			<path fill="#FFFFFF" d="M425.665,131.306v-3.521c-4.457,0.172-8.029,3.781-8.164,8.266h3.733c0-0.006-0.001-0.01-0.001-0.016
				C421.233,133.539,423.222,131.5,425.665,131.306z"/>
		</g>
	</g>
	<path fill="#363B48" d="M291.477,154.264c-13.847-0.461-25.189,4.646-25.189,4.646l-0.008,25.921
		c-1.41-0.561-3.125-0.693-4.866-0.27c-3.755,0.912-6.213,4.059-5.492,7.029s4.35,4.641,8.104,3.729
		c3.54-0.859,5.927-3.707,5.583-6.52l0,0v-19.367c0,0,8.021-2.803,18.424-3.508v14.406l0,0c-1.395-0.535-3.076-0.656-4.786-0.24
		c-3.754,0.912-6.213,4.059-5.491,7.029c0.721,2.971,4.35,4.641,8.104,3.729c3.279-0.797,5.569-3.297,5.617-5.896l0.001,0.002
		C291.477,184.953,291.477,159.525,291.477,154.264z"/>
</g>
<g>
	<g>
		<g>
			<rect x="626.633" y="192.835" fill="#9B3D3D" width="205.334" height="134"/>
		</g>
		<polygon fill="#BA4545" points="729.299,129.668 626.633,193.502 831.967,193.502 		"/>
	</g>
	<rect x="642.799" y="112.167" fill="#F8F8F8" width="173" height="161.667"/>
	<g>
		<rect x="667.299" y="193.5" fill="#CBDBE0" width="124" height="6"/>
		<rect x="667.299" y="203.5" fill="#CBDBE0" width="124" height="6"/>
		<rect x="667.299" y="213.5" fill="#CBDBE0" width="124" height="6"/>
		<rect x="667.299" y="223.5" fill="#CBDBE0" width="124" height="6"/>
		<rect x="667.299" y="233.5" fill="#CBDBE0" width="124" height="6"/>
		<rect x="667.299" y="153.5" fill="#CBDBE0" width="55.334" height="6"/>
		<rect x="667.299" y="143.5" fill="#CBDBE0" width="75.334" height="6"/>
	</g>
	<g>
		<polygon fill="#EA5854" points="626.633,193.169 729.299,257.17 831.967,193.169 831.967,320.836 626.633,320.836 		"/>
		<polygon fill="#C64646" points="729.299,257.002 626.633,320.836 831.967,320.836 		"/>
	</g>
</g>
</svg>
