<?xml version="1.0" encoding="utf-8"?>
<!-- Generator: Adobe Illustrator 16.0.0, SVG Export Plug-In . SVG Version: 6.00 Build 0)  -->
<!DOCTYPE svg PUBLIC "-//W3C//DTD SVG 1.1//EN" "http://www.w3.org/Graphics/SVG/1.1/DTD/svg11.dtd">
<svg version="1.1" id="Layer_1" xmlns="http://www.w3.org/2000/svg" xmlns:xlink="http://www.w3.org/1999/xlink" x="0px" y="0px"
	 width="103px" height="190.622px" viewBox="0 0 103 190.622" enable-background="new 0 0 103 190.622" xml:space="preserve">
<path fill="#FFFFFF" d="M76.67,29.708c-1.866,0.827-3.872,1.387-5.978,1.638c2.148-1.288,3.8-3.327,4.575-5.757
	c-2.011,1.192-4.236,2.058-6.608,2.525c-1.897-2.022-4.602-3.286-7.595-3.286c-5.747,0-10.406,4.659-10.406,10.406
	c0,0.815,0.093,1.61,0.27,2.372c-8.648-0.434-16.316-4.577-21.448-10.873c-0.896,1.537-1.409,3.325-1.409,5.231
	c0,3.61,1.836,6.795,4.629,8.662c-1.706-0.055-3.311-0.522-4.713-1.302c-0.001,0.043-0.001,0.087-0.001,0.131
	c0,5.042,3.587,9.247,8.348,10.204c-0.873,0.238-1.792,0.365-2.742,0.365c-0.67,0-1.322-0.065-1.958-0.187
	c1.325,4.134,5.167,7.143,9.721,7.227c-3.562,2.791-8.048,4.455-12.924,4.455c-0.84,0-1.668-0.05-2.482-0.146
	c4.605,2.953,10.075,4.675,15.951,4.675c19.141,0,29.608-15.856,29.608-29.607c0-0.452-0.011-0.9-0.031-1.347
	C73.511,33.627,75.274,31.794,76.67,29.708z"/>
<polygon fill="#2DA8E0" points="25.653,189.875 -0.003,145.438 25.653,101 76.965,101 102.621,145.438 76.965,189.875 "/>
<polygon fill="none" stroke="#FFFFFF" stroke-miterlimit="10" points="25.653,89.875 -0.003,45.438 25.653,1 76.965,1 
	102.621,45.438 76.965,89.875 "/>
<path fill="#FFFFFF" d="M76.67,129.708c-1.866,0.827-3.872,1.387-5.978,1.638c2.148-1.287,3.8-3.326,4.575-5.756
	c-2.011,1.191-4.236,2.058-6.608,2.524c-1.897-2.022-4.602-3.286-7.595-3.286c-5.747,0-10.406,4.659-10.406,10.406
	c0,0.814,0.093,1.609,0.27,2.371c-8.648-0.434-16.316-4.576-21.448-10.873c-0.896,1.537-1.409,3.325-1.409,5.232
	c0,3.609,1.836,6.795,4.629,8.661c-1.706-0.055-3.311-0.522-4.713-1.302c-0.001,0.043-0.001,0.087-0.001,0.131
	c0,5.042,3.587,9.247,8.348,10.203c-0.873,0.238-1.792,0.365-2.742,0.365c-0.67,0-1.322-0.064-1.958-0.187
	c1.325,4.134,5.167,7.143,9.721,7.227c-3.562,2.791-8.048,4.455-12.924,4.455c-0.84,0-1.668-0.05-2.482-0.146
	c4.605,2.953,10.075,4.675,15.951,4.675c19.141,0,29.608-15.856,29.608-29.606c0-0.452-0.011-0.9-0.031-1.348
	C73.511,133.627,75.274,131.795,76.67,129.708z"/>
</svg>
