<?xml version="1.0" encoding="utf-8"?>
<!-- Generator: Adobe Illustrator 16.0.0, SVG Export Plug-In . SVG Version: 6.00 Build 0)  -->
<!DOCTYPE svg PUBLIC "-//W3C//DTD SVG 1.1//EN" "http://www.w3.org/Graphics/SVG/1.1/DTD/svg11.dtd">
<svg version="1.1" id="Layer_1" xmlns="http://www.w3.org/2000/svg" xmlns:xlink="http://www.w3.org/1999/xlink" x="0px" y="0px"
	 width="103px" height="190.622px" viewBox="0 0 103 190.622" enable-background="new 0 0 103 190.622" xml:space="preserve">
<polygon fill="#AE1F23" points="26.004,189.622 0.349,145.185 26.004,100.747 77.316,100.747 102.973,145.185 77.316,189.622 "/>
<g>
	<path opacity="0.3" fill-rule="evenodd" clip-rule="evenodd" fill="#FFFFFF" d="M46.949,119.853h-2.867l-1.936,7.438l-2.012-7.438
		h-2.985c0.597,1.757,1.22,3.521,1.819,5.277c0.909,2.642,1.476,4.633,1.733,5.991v7.672h2.836v-7.672L46.949,119.853z
		 M54.527,134.223v-4.942c0-1.509-0.257-2.611-0.793-3.325c-0.706-0.965-1.704-1.446-2.985-1.446c-1.274,0-2.269,0.481-2.976,1.446
		c-0.544,0.714-0.802,1.816-0.802,3.325v4.942c0,1.501,0.257,2.613,0.802,3.319c0.707,0.962,1.702,1.445,2.976,1.445
		c1.281,0,2.279-0.483,2.985-1.445C54.271,136.836,54.527,135.724,54.527,134.223z M51.971,134.705c0,1.306-0.396,1.959-1.221,1.959
		c-0.824,0-1.219-0.653-1.219-1.959v-5.938c0-1.306,0.395-1.957,1.219-1.957c0.825,0,1.221,0.651,1.221,1.957V134.705z
		 M63.984,138.793v-14.115h-2.558v10.789c-0.565,0.802-1.104,1.197-1.614,1.197c-0.344,0-0.544-0.204-0.601-0.599
		c-0.029-0.085-0.029-0.396-0.029-0.996v-10.392h-2.55v11.162c0,0.996,0.086,1.67,0.227,2.099c0.254,0.714,0.824,1.049,1.646,1.049
		c0.934,0,1.902-0.566,2.921-1.734v1.54H63.984z"/>
	<path fill-rule="evenodd" clip-rule="evenodd" fill="#FFFFFF" d="M46.956,119.546h-2.868l-1.933,7.438l-2.014-7.438h-2.985
		c0.598,1.756,1.222,3.521,1.819,5.277c0.909,2.641,1.476,4.632,1.733,5.991v7.67h2.837v-7.67L46.956,119.546z M54.536,133.916
		v-4.944c0-1.508-0.259-2.61-0.795-3.324c-0.708-0.964-1.701-1.446-2.983-1.446c-1.274,0-2.271,0.482-2.978,1.446
		c-0.544,0.714-0.802,1.816-0.802,3.324v4.944c0,1.499,0.257,2.611,0.802,3.319c0.707,0.962,1.704,1.445,2.978,1.445
		c1.282,0,2.275-0.483,2.983-1.445C54.277,136.527,54.536,135.415,54.536,133.916z M51.978,134.397c0,1.305-0.395,1.958-1.22,1.958
		c-0.826,0-1.221-0.653-1.221-1.958v-5.938c0-1.306,0.395-1.955,1.221-1.955c0.825,0,1.22,0.649,1.22,1.955V134.397z
		 M63.993,138.484v-14.113h-2.558v10.787c-0.567,0.802-1.104,1.197-1.615,1.197c-0.344,0-0.543-0.201-0.6-0.599
		c-0.032-0.083-0.032-0.394-0.032-0.995v-10.391h-2.55v11.161c0,0.995,0.088,1.671,0.229,2.098c0.255,0.716,0.822,1.051,1.647,1.051
		c0.932,0,1.902-0.567,2.921-1.736v1.54H63.993z"/>
</g>
<path fill-rule="evenodd" clip-rule="evenodd" fill="#FFFFFF" d="M72.278,155.614c0,3.265-0.003,6.728-0.734,9.898
	c-0.512,2.228-2.333,3.869-4.525,4.114c-5.194,0.58-10.449,0.583-15.681,0.58c-5.233,0.003-10.488,0-15.681-0.58
	c-2.194-0.245-4.014-1.887-4.524-4.114c-0.729-3.171-0.729-6.634-0.729-9.898l0,0c0-3.266,0.007-6.727,0.738-9.9
	c0.511-2.226,2.331-3.867,4.524-4.112c5.192-0.582,10.448-0.583,15.681-0.582c5.231-0.001,10.486,0,15.681,0.582
	c2.191,0.245,4.014,1.887,4.525,4.112C72.281,148.888,72.278,152.349,72.278,155.614L72.278,155.614z"/>
<path fill-rule="evenodd" clip-rule="evenodd" fill="#AE1F23" d="M42.347,148.568v-2.64h-8.824v2.64h2.978v16.105h2.813v-16.105
	H42.347z M47.46,164.674v-1.523c-1.004,1.154-1.961,1.716-2.891,1.716c-0.816,0-1.378-0.332-1.63-1.04
	c-0.139-0.422-0.224-1.089-0.224-2.074v-11.045h2.53v10.283c0,0.592,0,0.902,0.023,0.982c0.062,0.393,0.253,0.593,0.592,0.593
	c0.507,0,1.04-0.392,1.6-1.184v-10.675h2.534v13.967H47.46z M57.076,160.682c0,1.262-0.371,1.884-1.101,1.884
	c-0.415,0-0.839-0.2-1.262-0.622v-8.514c0.423-0.416,0.847-0.614,1.262-0.614c0.729,0,1.101,0.646,1.101,1.906V160.682z
	 M59.606,160.482v-5.562c0-1.322-0.086-2.245-0.255-2.808c-0.339-1.046-1.015-1.576-2.022-1.576c-0.931,0-1.797,0.509-2.615,1.515
	v-6.123h-2.53v18.745h2.53v-1.354c0.847,1.046,1.715,1.547,2.615,1.547c1.008,0,1.684-0.53,2.022-1.57
	C59.521,162.704,59.606,161.774,59.606,160.482z M66.628,156.045h-2.529v-1.292c0-1.292,0.422-1.938,1.268-1.938
	c0.838,0,1.262,0.646,1.262,1.938V156.045z M69.158,160.205v-0.369h-2.584c0,1.016-0.031,1.577-0.054,1.715
	c-0.145,0.677-0.509,1.015-1.132,1.015c-0.868,0-1.29-0.645-1.29-1.938v-2.476h5.06v-2.893c0-1.492-0.254-2.583-0.784-3.29
	c-0.708-0.956-1.717-1.432-2.985-1.432c-1.29,0-2.301,0.476-3.029,1.432c-0.539,0.707-0.782,1.798-0.782,3.29v4.893
	c0,1.483,0.274,2.586,0.812,3.284c0.73,0.953,1.739,1.431,3.064,1.431c1.321,0,2.358-0.501,3.061-1.513
	c0.307-0.45,0.505-0.957,0.59-1.518C69.127,161.582,69.158,161.021,69.158,160.205z"/>
<polygon fill="none" stroke="#FFFFFF" stroke-miterlimit="10" points="26.004,89.875 0.349,45.438 26.004,1 77.316,1 
	102.973,45.438 77.316,89.875 "/>
<g>
	<path opacity="0.3" fill-rule="evenodd" clip-rule="evenodd" fill="#FFFFFF" d="M46.949,20.105h-2.867l-1.936,7.438l-2.012-7.438
		h-2.985c0.597,1.757,1.22,3.521,1.819,5.277c0.909,2.642,1.476,4.633,1.733,5.991v7.672h2.836v-7.672L46.949,20.105z
		 M54.527,34.476v-4.942c0-1.509-0.257-2.611-0.793-3.325c-0.706-0.965-1.704-1.446-2.985-1.446c-1.274,0-2.269,0.481-2.976,1.446
		c-0.544,0.714-0.802,1.816-0.802,3.325v4.942c0,1.501,0.257,2.613,0.802,3.319c0.707,0.962,1.702,1.445,2.976,1.445
		c1.281,0,2.279-0.483,2.985-1.445C54.271,37.089,54.527,35.977,54.527,34.476z M51.971,34.958c0,1.306-0.396,1.959-1.221,1.959
		c-0.824,0-1.219-0.653-1.219-1.959v-5.938c0-1.306,0.395-1.957,1.219-1.957c0.825,0,1.221,0.651,1.221,1.957V34.958z
		 M63.984,39.046V24.931h-2.558V35.72c-0.565,0.802-1.104,1.197-1.614,1.197c-0.344,0-0.544-0.204-0.601-0.599
		c-0.029-0.085-0.029-0.396-0.029-0.996V24.931h-2.55v11.162c0,0.996,0.086,1.67,0.227,2.099c0.254,0.714,0.824,1.049,1.646,1.049
		c0.934,0,1.902-0.566,2.921-1.734v1.54H63.984z"/>
	<path fill-rule="evenodd" clip-rule="evenodd" fill="#FFFFFF" d="M46.956,19.799h-2.868l-1.933,7.438l-2.014-7.438h-2.985
		c0.598,1.756,1.222,3.521,1.819,5.277c0.909,2.641,1.476,4.632,1.733,5.991v7.67h2.837v-7.67L46.956,19.799z M54.536,34.169v-4.944
		c0-1.508-0.259-2.61-0.795-3.324c-0.708-0.964-1.701-1.446-2.983-1.446c-1.274,0-2.271,0.482-2.978,1.446
		c-0.544,0.714-0.802,1.816-0.802,3.324v4.944c0,1.499,0.257,2.611,0.802,3.319c0.707,0.962,1.704,1.445,2.978,1.445
		c1.282,0,2.275-0.483,2.983-1.445C54.277,36.78,54.536,35.668,54.536,34.169z M51.978,34.65c0,1.305-0.395,1.958-1.22,1.958
		c-0.826,0-1.221-0.653-1.221-1.958v-5.938c0-1.306,0.395-1.955,1.221-1.955c0.825,0,1.22,0.649,1.22,1.955V34.65z M63.993,38.737
		V24.624h-2.558v10.787c-0.567,0.802-1.104,1.197-1.615,1.197c-0.344,0-0.543-0.201-0.6-0.599c-0.032-0.083-0.032-0.394-0.032-0.995
		V24.624h-2.55v11.161c0,0.995,0.088,1.671,0.229,2.098c0.255,0.716,0.822,1.051,1.647,1.051c0.932,0,1.902-0.567,2.921-1.736v1.54
		H63.993z"/>
</g>
<g>
	<path fill-rule="evenodd" clip-rule="evenodd" fill="#FFFFFF" d="M65.366,53.068c-0.846,0-1.268,0.646-1.268,1.938v1.292h2.529
		v-1.292C66.628,53.714,66.204,53.068,65.366,53.068z"/>
	<path fill-rule="evenodd" clip-rule="evenodd" fill="#FFFFFF" d="M55.976,53.068c-0.415,0-0.839,0.198-1.262,0.614v8.514
		c0.423,0.422,0.847,0.622,1.262,0.622c0.729,0,1.101-0.622,1.101-1.884v-5.96C57.076,53.714,56.705,53.068,55.976,53.068z"/>
	<path fill-rule="evenodd" clip-rule="evenodd" fill="#FFFFFF" d="M71.553,45.967c-0.512-2.226-2.334-3.867-4.525-4.112
		c-5.194-0.582-10.449-0.583-15.681-0.582c-5.233-0.001-10.488,0-15.681,0.582c-2.193,0.245-4.014,1.887-4.524,4.112
		c-0.731,3.174-0.738,6.635-0.738,9.9c0,3.265,0,6.728,0.729,9.898c0.511,2.228,2.331,3.869,4.524,4.114
		c5.192,0.58,10.448,0.583,15.681,0.58c5.231,0.003,10.486,0,15.681-0.58c2.192-0.245,4.014-1.887,4.525-4.114
		c0.731-3.171,0.734-6.634,0.734-9.898C72.278,52.602,72.281,49.141,71.553,45.967z M42.347,48.821h-3.032v16.105h-2.813V48.821
		h-2.978v-2.64h8.824V48.821z M49.994,64.927H47.46v-1.523c-1.004,1.154-1.961,1.716-2.891,1.716c-0.816,0-1.378-0.332-1.63-1.04
		c-0.139-0.422-0.224-1.089-0.224-2.074V50.96h2.53v10.283c0,0.592,0,0.902,0.023,0.982c0.062,0.393,0.253,0.593,0.592,0.593
		c0.507,0,1.04-0.392,1.6-1.184V50.96h2.534V64.927z M59.606,60.735c0,1.292-0.086,2.222-0.255,2.813
		c-0.339,1.04-1.015,1.57-2.022,1.57c-0.9,0-1.769-0.501-2.615-1.547v1.354h-2.53V46.182h2.53v6.123
		c0.818-1.006,1.685-1.515,2.615-1.515c1.008,0,1.684,0.53,2.022,1.576c0.169,0.562,0.255,1.485,0.255,2.808V60.735z M69.158,58.404
		h-5.06v2.476c0,1.294,0.422,1.938,1.29,1.938c0.623,0,0.987-0.338,1.132-1.015c0.022-0.138,0.054-0.699,0.054-1.715h2.584v0.369
		c0,0.815-0.031,1.377-0.055,1.631c-0.085,0.561-0.283,1.067-0.59,1.518c-0.702,1.012-1.739,1.513-3.061,1.513
		c-1.325,0-2.334-0.478-3.064-1.431c-0.537-0.698-0.812-1.801-0.812-3.284v-4.893c0-1.492,0.243-2.583,0.782-3.29
		c0.729-0.956,1.739-1.432,3.029-1.432c1.269,0,2.277,0.476,2.985,1.432c0.53,0.707,0.784,1.798,0.784,3.29V58.404z"/>
</g>
</svg>
